<svg id="Comment-icn" xmlns="http://www.w3.org/2000/svg" width="20" height="20" viewBox="0 0 20 20">
  <defs>
    <style>
      .cls-1 {
        fill: none;
      }

      .cls-2 {
        fill: #111;
      }
    </style>
  </defs>
  <rect id="Rectangle_71576" data-name="Rectangle 71576" class="cls-1" width="20" height="20"/>
  <path id="Path_140163" data-name="Path 140163" class="cls-2" d="M14.911,1H5.091A4.1,4.1,0,0,0,1,5.091v6.546a4.1,4.1,0,0,0,3.273,4.009v2.537a.818.818,0,0,0,1.272.681l4.7-3.136h4.662A4.1,4.1,0,0,0,19,11.638V5.091A4.1,4.1,0,0,0,14.911,1ZM9.547,14.23,5.91,16.654V14.911a.819.819,0,0,0-.818-.818,2.458,2.458,0,0,1-2.455-2.455V5.091A2.458,2.458,0,0,1,5.091,2.637h9.819a2.458,2.458,0,0,1,2.455,2.455v6.546a2.458,2.458,0,0,1-2.455,2.455H10a.8.8,0,0,0-.454.137Z" transform="translate(0.652)"/>
</svg>
