<svg id="Helpful-icn" xmlns="http://www.w3.org/2000/svg" width="20" height="20" viewBox="0 0 20 20">
  <defs>
    <style>
      .cls-1 {
        fill: none;
      }

      .cls-2 {
        fill: #111;
      }
    </style>
  </defs>
  <rect id="Rectangle_71576" data-name="Rectangle 71576" class="cls-1" width="20" height="20"/>
  <path id="Path_140162" data-name="Path 140162" class="cls-2" d="M2.7,19.756H4.79a1.723,1.723,0,0,0,1.633-1.329,4.438,4.438,0,0,1,1.13.281,8.5,8.5,0,0,0,3.253.908l4.8.1h.042a2.167,2.167,0,0,0,2.079-1.876L18.97,9.986a2.35,2.35,0,0,0-.484-1.845,2.081,2.081,0,0,0-1.638-.779l-3.856.09a11.3,11.3,0,0,0,.615-2.879A2.783,2.783,0,0,0,12.9,2.6a2.513,2.513,0,0,0-1.869-.84A1.4,1.4,0,0,0,9.677,2.968,11.232,11.232,0,0,1,7.3,7.727a2.182,2.182,0,0,1-.925.665A1.711,1.711,0,0,0,4.79,7.215H2.7A1.766,1.766,0,0,0,1,9.033v8.9a1.766,1.766,0,0,0,1.7,1.818ZM8.4,8.816A12.81,12.81,0,0,0,11.134,3.36a1.032,1.032,0,0,1,.685.345,1.138,1.138,0,0,1,.29.806A9.825,9.825,0,0,1,11.583,6.9a1.693,1.693,0,0,0,.185,1.479A1.49,1.49,0,0,0,13,9.045l3.876-.082h.014a.586.586,0,0,1,.458.225.666.666,0,0,1,.14.532l-1.242,7.854a.625.625,0,0,1-.6.541h-.012l-4.8-.1a7.3,7.3,0,0,1-2.741-.8,5.861,5.861,0,0,0-1.6-.409v-6.76l.353-.129A3.62,3.62,0,0,0,8.4,8.816Zm-5.9.217a.211.211,0,0,1,.2-.217H4.79a.211.211,0,0,1,.2.217v8.9a.211.211,0,0,1-.2.217H2.7a.211.211,0,0,1-.2-.217Z" transform="translate(0 -0.756)"/>
</svg>
