<svg data-name="Group 128163" xmlns="http://www.w3.org/2000/svg" width="18.234" height="18.234" viewBox="0 0 18.234 18.234">
    <path data-name="Path 140376" d="M16.771 11.969a10.353 10.353 0 0 1-3.251-.518 1.486 1.486 0 0 0-1.445.3L10.024 13.3A11.331 11.331 0 0 1 4.93 8.21l1.5-2a1.474 1.474 0 0 0 .365-1.49 10.369 10.369 0 0 1-.52-3.257A1.465 1.465 0 0 0 4.812 0H1.463A1.465 1.465 0 0 0 0 1.463a16.79 16.79 0 0 0 16.771 16.771 1.465 1.465 0 0 0 1.463-1.463v-3.339a1.465 1.465 0 0 0-1.463-1.463z" style="fill:#fff"/>
</svg>
