<svg xmlns="http://www.w3.org/2000/svg" width="16.999" height="17" viewBox="0 0 16.999 17">
  <defs>
    <style>
      .cls-1 {
        fill: #0F76D7;
      }
    </style>
  </defs>
  <g id="Group_127626" data-name="Group 127626" transform="translate(-1544.002 10246.002)">
    <path id="Path_140380" data-name="Path 140380" class="cls-1" d="M-6389-21117a2,2,0,0,1-2-2.006v-10.357a2.006,2.006,0,0,1,2-2.006h.625v-.619a2.008,2.008,0,0,1,2-2.012h10.364a2.013,2.013,0,0,1,2.01,2.012v10.357a2.012,2.012,0,0,1-2.01,2.006h-.621v.619a2,2,0,0,1-2,2.006Zm-.774-12.363v10.357a.781.781,0,0,0,.774.781h10.364a.782.782,0,0,0,.78-.781v-10.357a.777.777,0,0,0-.78-.775H-6389A.776.776,0,0,0-6389.772-21129.365Zm2.631-2.625v.619h8.507a2.007,2.007,0,0,1,2,2.006v8.508h.621a.781.781,0,0,0,.78-.775v-10.357a.782.782,0,0,0-.78-.781h-10.364A.777.777,0,0,0-6387.142-21131.99Zm2.418,11.906v-3.2h-3.2a.867.867,0,0,1-.865-.871.864.864,0,0,1,.865-.863h3.2v-3.205a.864.864,0,0,1,.864-.863.869.869,0,0,1,.87.863v3.205h3.2a.865.865,0,0,1,.87.863.868.868,0,0,1-.87.871h-3.2v3.2a.87.87,0,0,1-.87.869A.865.865,0,0,1-6384.723-21120.084Z" transform="translate(7935 10888)"/>
  </g>
</svg>
