<svg xmlns="http://www.w3.org/2000/svg" width="22" height="22" viewBox="0 0 22 22">
    <path data-name="Forma 1 copy 10" d="M1268.27 388.5c.276 0 .525.007.734.015v3.621a.875.875 0 0 0 .516.808.807.807 0 0 0 .91-.189l6.318-6.616a.876.876 0 0 0 .113-.142.906.906 0 0 0-.1-1.1l-6.327-6.626a.808.808 0 0 0-.91-.189.875.875 0 0 0-.516.808v3.584c-6.25.774-9.506 4.446-10 10.513.357.436 2.739-4.622 9.262-4.487z" transform="translate(-1257 -375.01)" style="stroke:#111;stroke-width:1.2px;fill:none"/>
    <path data-name="Rectangle 6580" style="fill:none" d="M0 0h22v22H0z"/>
</svg>
