<svg xmlns="http://www.w3.org/2000/svg" width="22" height="22" viewBox="0 0 22 22">
    <g data-name="Group 7431">
        <path data-name="-e-pencil-icn" d="m59.2 2642.7-1.3-1.3a1.375 1.375 0 0 0-1.946 0l-10.576 10.575a.477.477 0 0 0-.107.168v.011l-1.3 3.891a.458.458 0 0 0 .58.58l3.891-1.3a.47.47 0 0 0 .179-.11l10.579-10.572a1.378 1.378 0 0 0 0-1.943zm-14.066 12.769.772-2.317.124.124a1.369 1.369 0 0 0 .9.4 1.363 1.363 0 0 0 .4.9l.124.125zm3.166-1.22-.324-.324a.458.458 0 0 1 0-.648.459.459 0 1 0-.649-.649.459.459 0 0 1-.648 0l-.324-.324 7.333-7.333 1.946 1.945zm7.982-7.982-1.946-1.945.649-.648 1.946 1.946zm2.27-2.27-.973.973-1.946-1.945.973-.973a.459.459 0 0 1 .649 0l1.3 1.3a.459.459 0 0 1 0 .642z" transform="translate(-40.804 -2637.825)" style="fill:#0F76D7;stroke:#0000;stroke-width:.2px"/>
        <path data-name="Rectangle 30" style="fill:none" d="M0 0h22v22H0z"/>
    </g>
</svg>
