<svg xmlns="http://www.w3.org/2000/svg" width="22" height="22" viewBox="0 0 22 22">
    <g data-name="Group 7453">
        <path data-name="-e-star-icn" d="M58 1667.793a.509.509 0 0 0-.4-.356l-5.616-.836-2.527-5.32a.5.5 0 0 0-.447-.29.5.5 0 0 0-.447.294l-2.494 5.335-5.615.874a.509.509 0 0 0-.4.356.533.533 0 0 0 .129.534l4.075 4.136-.942 5.858a.527.527 0 0 0 .2.51.477.477 0 0 0 .292.1.459.459 0 0 0 .233-.062l5.013-2.782 5.028 2.752a.487.487 0 0 0 .229.058.514.514 0 0 0 .5-.523.426.426 0 0 0-.015-.12l-.972-5.823 4.049-4.159a.528.528 0 0 0 .127-.536zm-5.061 4.144a.532.532 0 0 0-.14.464l.846 5.08-4.367-2.387a.485.485 0 0 0-.465 0l-4.352 2.415.816-5.088a.538.538 0 0 0-.144-.461l-3.532-3.59 4.873-.758a.5.5 0 0 0 .373-.287l2.165-4.632 2.194 4.62a.508.508 0 0 0 .377.286l4.877.727z" transform="translate(-38.023 -1658.988)" style="fill:#0F76D7;stroke:#0F76D7;stroke-width:.2px"/>
        <path data-name="Rectangle 6581" style="fill:none" d="M0 0h22v22H0z"/>
    </g>
</svg>
