<svg xmlns="http://www.w3.org/2000/svg" width="21.098" height="21.098" viewBox="0 0 21.098 21.098">
    <g data-name="Group 68113">
        <path data-name="Path 88226" d="M16.245 0H1.962A1.964 1.964 0 0 0 0 1.962v12a1.964 1.964 0 0 0 1.962 1.962H6.6l2.126 2.126a.533.533 0 0 0 .754 0l2.129-2.129h4.635a1.964 1.964 0 0 0 1.962-1.962v-12A1.964 1.964 0 0 0 16.245 0zm.895 13.96a.9.9 0 0 1-.895.895h-4.856a.533.533 0 0 0-.377.156L9.1 16.919l-1.9-1.908a.533.533 0 0 0-.377-.156H1.962a.9.9 0 0 1-.895-.895v-12a.9.9 0 0 1 .895-.895h14.283a.9.9 0 0 1 .895.895z" transform="translate(1.446 1.446)" style="fill:#111"/>
        <path data-name="Path 88227" d="m123.758 83.68-2.788-.421-1.247-2.623a.516.516 0 0 0-.941 0l-1.247 2.623-2.788.421a.53.53 0 0 0-.423.371.559.559 0 0 0 .133.558l2.018 2.041-.475 2.882a.554.554 0 0 0 .209.532.509.509 0 0 0 .552.041l2.494-1.361 2.494 1.361a.509.509 0 0 0 .244.063.535.535 0 0 0 .523-.544.57.57 0 0 0-.013-.122l-.472-2.853 2.018-2.041a.559.559 0 0 0 .133-.558.53.53 0 0 0-.423-.371zm-2.658 2.39a.557.557 0 0 0-.151.482l.343 2.077-1.8-.981a.508.508 0 0 0-.488 0l-1.8.981.343-2.077a.557.557 0 0 0-.151-.482l-1.448-1.47 2.01-.3a.526.526 0 0 0 .395-.3l.9-1.89.9 1.89a.526.526 0 0 0 .395.3l2.009.3z" transform="translate(-108.703 -76.097)" style="fill:#111"/>
    </g>
</svg>
