<svg id="Component_98_12" data-name="Component 98 – 12" xmlns="http://www.w3.org/2000/svg" width="16.778" height="16.778" viewBox="0 0 16.778 16.778">
  <defs>
    <style>
      .cls-1 {
        fill: #fff;
      }

      .cls-2 {
        fill: none;
      }
    </style>
  </defs>
  <g id="footer-call">
    <path id="result-call" class="cls-1" d="M153.2,293.5a9.577,9.577,0,0,1-3.036-.5,1.041,1.041,0,0,0-.848.164l-1.341,1.335a6.809,6.809,0,0,1-3.123-2.015,9.176,9.176,0,0,1-2.391-3.589l1.265-1.259a.666.666,0,0,0,.164-.844,11.279,11.279,0,0,1-.417-2.933.794.794,0,0,0-.658-.856H139.77a.8.8,0,0,0-.615.231.79.79,0,0,0-.232.613,14.3,14.3,0,0,0,14.256,14.265h0a.795.795,0,0,0,.848-.844v-2.933a.8.8,0,0,0-.746-.831Z" transform="translate(-138.145 -282.391)"/>
    <rect id="Rectangle_6438" data-name="Rectangle 6438" class="cls-2" width="16.778" height="16.778"/>
  </g>
</svg>
