<svg xmlns="http://www.w3.org/2000/svg" width="20" height="20" viewBox="0 0 20 20">
    <defs>
        <style>
            .cls-1{fill:#1274c0}.cls-2{fill:none}
        </style>
    </defs>
    <g id="result-call">
        <path id="result-call-2" d="M155.938 295.512a11.409 11.409 0 0 1-3.617-.6 1.241 1.241 0 0 0-1.01.2l-1.6 1.59a8.114 8.114 0 0 1-3.72-2.4 10.933 10.933 0 0 1-2.849-4.276l1.507-1.5a.793.793 0 0 0 .2-1.006 13.439 13.439 0 0 1-.5-3.495.946.946 0 0 0-.784-1.02h-3.633a.952.952 0 0 0-.733.275.942.942 0 0 0-.276.731 17.042 17.042 0 0 0 16.985 17 .947.947 0 0 0 1.011-1.011v-3.5a.947.947 0 0 0-.889-.99z" class="cls-1" data-name="result-call" transform="translate(-137.921 -281.998)"/>
        <path id="Rectangle_6438" d="M0 0h20v20H0z" class="cls-2" data-name="Rectangle 6438"/>
    </g>
</svg>
