<svg xmlns="http://www.w3.org/2000/svg" id="jdverified" viewBox="0 0 16 16">
    <defs>
        <style>
            .cls-1{opacity:.8}.cls-2{fill:#2d3038}.cls-2,.cls-4{fill-rule:evenodd}.cls-3,.cls-4{fill:#fff}
        </style>
    </defs>
    <g id="Shape_4_1_" class="cls-1">
        <g id="Group_1" data-name="Group 1" transform="translate(.485 .485)">
            <path id="Path_1" d="M8.515 16.03a7.515 7.515 0 1 1 7.515-7.515 7.553 7.553 0 0 1-7.515 7.515z" class="cls-2" data-name="Path 1" transform="translate(-1 -1)"/>
        </g>
        <g id="Group_2" data-name="Group 2">
            <path id="Path_2" d="M8 .97A7.03 7.03 0 1 1 .97 8 7.035 7.035 0 0 1 8 .97M8 0a8 8 0 1 0 8 8 8.008 8.008 0 0 0-8-8z" class="cls-3" data-name="Path 2"/>
        </g>
    </g>
    <g id="Shape_6_2_" transform="translate(3.394 2.924)">
        <g id="Group_3" data-name="Group 3">
            <path id="Path_3" d="M7 14.646h2.036v-4.363H7zm8.63-3.927s.679-1.552-1.5-1.164c0 0-1.358.291-1.5-.145 0 0-.1-.291.388-.873a1.622 1.622 0 0 0-.145-2.327s-.63-.533-.727.242 0 .824-.388 1.406A6.589 6.589 0 0 0 10.3 9.846s-.339.679-.873.727v3.733a4.8 4.8 0 0 1 1.406.194 10.181 10.181 0 0 0 1.891.291 5.2 5.2 0 0 0 1.988-.339.843.843 0 0 0 .339-.679.341.341 0 0 1 .1-.388.7.7 0 0 0 .291-.921.4.4 0 0 1 .1-.485s.388-.291.1-.582a.98.98 0 0 1-.012-.678z" class="cls-4" data-name="Path 3" transform="translate(-7 -6.031)"/>
        </g>
    </g>
</svg>
