<svg xmlns="http://www.w3.org/2000/svg" id="placeholder-filled-point" width="20" height="20" viewBox="0 0 20 20">
    <defs>
        <style>
            .cls-1{fill:#1274c0}.cls-2{fill:none}
        </style>
    </defs>
    <path id="Path_3427" d="M19.383 0a6.572 6.572 0 0 0-6.5 6.627 6.571 6.571 0 0 0 .568 2.705 41.822 41.822 0 0 0 5.657 8.54.357.357 0 0 0 .548 0 41.843 41.843 0 0 0 5.658-8.54 6.568 6.568 0 0 0 .568-2.705A6.572 6.572 0 0 0 19.383 0zm0 10.069a3.443 3.443 0 1 1 3.376-3.442 3.414 3.414 0 0 1-3.376 3.442z" class="cls-1" data-name="Path 3427" transform="translate(-9.383 1)"/>
    <path id="Rectangle_6438" d="M0 0h20v20H0z" class="cls-2" data-name="Rectangle 6438"/>
</svg>
