<svg xmlns="http://www.w3.org/2000/svg" width="20" height="20" viewBox="0 0 20 20">
    <defs>
        <style>
            .cls-1{fill:#dcdcdc;opacity:0}.cls-2{fill:#414e5a;stroke:rgba(0,0,0,0)}
        </style>
    </defs>
    <g id="icons" transform="translate(-661 -1389)">
        <path id="Rectangle_6053" d="M0 0h20v20H0z" class="cls-1" data-name="Rectangle 6053" transform="translate(661 1389)"/>
        <path id="Path_3492" d="M1805.355 4450.991a.5.5 0 0 1-.2-.238 3.937 3.937 0 0 1-.147-1.229.549.549 0 0 0 0-.062 2.174 2.174 0 0 1 1.325-2.233l.041-.011a7.607 7.607 0 0 0 2.168-.948.535.535 0 0 1 .723.124.52.52 0 0 1 .087.4.5.5 0 0 1-.217.315 8.753 8.753 0 0 1-2.489 1.09c-.459.157-.567.606-.589 1.281l-.167.059h.165a4.04 4.04 0 0 0 .04.677 10.951 10.951 0 0 0 9.132 0 4.288 4.288 0 0 0 .041-.679.545.545 0 0 1 0-.073c-.022-.663-.13-1.112-.6-1.272a8.635 8.635 0 0 1-2.477-1.086.508.508 0 0 1-.132-.718.535.535 0 0 1 .727-.124 7.691 7.691 0 0 0 2.17.946 2.168 2.168 0 0 1 1.36 2.23v.074l-.165.007.165-.006a4.093 4.093 0 0 1-.135 1.207.516.516 0 0 1-.213.26 11.889 11.889 0 0 1-10.613 0zm5.345-4.991h-.157a2.837 2.837 0 0 1-2-.831 4.557 4.557 0 0 1-.921-3.334 2.727 2.727 0 0 1 1.452-2.462 3.5 3.5 0 0 1 1.562-.371h.059a3.477 3.477 0 0 1 1.573.379 2.742 2.742 0 0 1 1.44 2.473 4.545 4.545 0 0 1-.92 3.312 2.846 2.846 0 0 1-2 .834zm-.018-1.022a1.753 1.753 0 0 0 1.309-.5 3.657 3.657 0 0 0 .64-2.539v-.061a1.79 1.79 0 0 0-1.954-1.852h-.043c-.071 0-.143-.006-.214 0a1.8 1.8 0 0 0-1.722 1.868v.022l-.005.027v.01a3.634 3.634 0 0 0 .646 2.531 1.726 1.726 0 0 0 1.3.5h.008z" class="cls-2" data-name="Path 3492" transform="translate(-1139.5 -3046.5)"/>
    </g>
</svg>
