<svg xmlns="http://www.w3.org/2000/svg" width="23" height="23" viewBox="0 0 23 23">
    <defs>
        <style>
            .cls-1{fill:none}.cls-2{fill:#363d43}
        </style>
    </defs>
    <g id="editlist" transform="translate(-16 -938)">
        <path id="Rectangle_5945" d="M0 0h23v23H0z" class="cls-1" data-name="Rectangle 5945" transform="translate(16 938)"/>
        <path id="_-e-pencil-icn" d="M346.751 850.1l-1.246-1.247a1.32 1.32 0 0 0-1.869 0l-10.162 10.171a.456.456 0 0 0-.1.162v.01l-1.246 3.742a.441.441 0 0 0 .557.558l3.739-1.248a.454.454 0 0 0 .172-.106l10.162-10.171a1.327 1.327 0 0 0-.007-1.871zm-13.516 12.281l.742-2.228.119.119a1.321 1.321 0 0 1 1.246 1.248l.119.119zm3.042-1.174l-.312-.312a.441.441 0 0 1 0-.624.441.441 0 1 0-.623-.624.441.441 0 0 1-.623 0l-.312-.311 7.046-7.053 1.869 1.871zm7.67-7.677l-1.87-1.871.623-.624 1.869 1.871zm2.181-2.183l-.935.936-1.869-1.871.935-.936a.441.441 0 0 1 .623 0l1.246 1.248a.441.441 0 0 1 0 .625z" class="cls-2" data-name="-e-pencil-icn" transform="translate(-312 93.158)"/>
    </g>
</svg>
