<svg xmlns="http://www.w3.org/2000/svg" id="share" width="20" height="20" viewBox="0 0 20 20">
    <defs>
        <style>
            .cls-1{fill:#1274c0}.cls-2{fill:none}
        </style>
    </defs>
    <path id="Path_1172" d="M20.031 8.282l-5.657 5.206a1.035 1.035 0 0 1-.723.281 1.072 1.072 0 0 1-.386-.074.888.888 0 0 1-.643-.873v-2.365a14.959 14.959 0 0 0-3.6.348 4.316 4.316 0 0 0-2.089 1.117q-1.7 1.76-1 7a.419.419 0 0 1-.305.488.49.49 0 0 1-.209.044.519.519 0 0 1-.4-.178q-2.684-3.3-2.684-5.975a15.373 15.373 0 0 1 .08-1.635 9.5 9.5 0 0 1 .345-1.649A6.322 6.322 0 0 1 3.477 8.4a6.942 6.942 0 0 1 1.23-1.412A6.847 6.847 0 0 1 6.539 5.82a11.848 11.848 0 0 1 2.611-.755 19.161 19.161 0 0 1 3.472-.288V2.411a.888.888 0 0 1 .643-.873.97.97 0 0 1 1.109.207l5.657 5.206a.878.878 0 0 1 0 1.331z" class="cls-1" data-name="Path 1172" transform="translate(-1.336 -.449)"/>
    <path id="Rectangle_6439" d="M0 0h20v20H0z" class="cls-2" data-name="Rectangle 6439"/>
</svg>
