<svg id="Nd-Thumb" xmlns="http://www.w3.org/2000/svg" width="24" height="24" viewBox="0 0 24 24">
  <defs>
    <style>
      .cls-1 {
        fill: #2d3038;
      }

      .cls-2 {
        fill: #fff;
        fill-rule: evenodd;
      }
    </style>
  </defs>
  <g id="Group_159290" data-name="Group 159290">
    <path id="Path_230478" data-name="Path 230478" class="cls-1" d="M12,0c9.636,0,12,2.364,12,12S21.636,24,12,24,0,21.636,0,12,2.364,0,12,0Z" transform="translate(0 0)"/>
    <path id="Path_3" data-name="Path 3" class="cls-2" d="M7,18.953h3.054V12.409H7Zm12.945-5.891s1.019-2.328-2.25-1.746c0,0-2.037.437-2.25-.218,0,0-.15-.437.582-1.309A2.433,2.433,0,0,0,15.809,6.3s-.945-.8-1.09.363,0,1.236-.582,2.109a9.884,9.884,0,0,0-2.187,2.982s-.509,1.019-1.309,1.091v5.6a7.2,7.2,0,0,1,2.109.291,15.271,15.271,0,0,0,2.836.436,7.8,7.8,0,0,0,2.982-.508,1.265,1.265,0,0,0,.508-1.018.511.511,0,0,1,.15-.582,1.05,1.05,0,0,0,.437-1.381.6.6,0,0,1,.15-.728s.582-.437.15-.873a1.47,1.47,0,0,1-.018-1.017Z" transform="translate(-1.197 -1.625)"/>
  </g>
</svg>
