<svg id="fav-icn" xmlns="http://www.w3.org/2000/svg" width="22" height="22" viewBox="0 0 22 22">
  <defs>
    <style>
      .cls-1 {
        fill: #fff;
        opacity: 0;
      }

      .cls-2 {
        fill: #111;
        stroke: #111;
        stroke-width: 0.2px;
      }
    </style>
  </defs>
  <path id="Rectangle_6440" data-name="Rectangle 6440" class="cls-1" d="M0,0H22V22H0Z"/>
  <path id="Path_3291" data-name="Path 3291" class="cls-2" d="M19.035,31.618a5.171,5.171,0,0,0-8.257.594,7.874,7.874,0,0,0-.513.829,7.868,7.868,0,0,0-.513-.829,5.171,5.171,0,0,0-8.257-.594A6.224,6.224,0,0,0,0,35.749a7.622,7.622,0,0,0,2.1,5A46.735,46.735,0,0,0,7.353,45.66c.795.677,1.613,1.377,2.493,2.143l.026.023a.6.6,0,0,0,.793,0l.026-.023c.875-.766,1.7-1.467,2.493-2.143a46.728,46.728,0,0,0,5.254-4.908,7.622,7.622,0,0,0,2.094-5A6.224,6.224,0,0,0,19.035,31.618ZM12.4,44.745c-.685.587-1.393,1.184-2.133,1.833-.744-.646-1.448-1.247-2.133-1.833-4.173-3.555-6.93-5.9-6.93-9a5.023,5.023,0,0,1,1.2-3.338,4.016,4.016,0,0,1,3.054-1.374,4.055,4.055,0,0,1,3.32,1.869A7.132,7.132,0,0,1,9.7,34.739a.6.6,0,0,0,1.144,0,7.132,7.132,0,0,1,.921-1.833,3.97,3.97,0,0,1,6.373-.494,5.023,5.023,0,0,1,1.2,3.338c0,3.091-2.757,5.44-6.93,9Z" transform="translate(0.734 -27.905)"/>
</svg>
