<svg xmlns="http://www.w3.org/2000/svg" width="22.5" height="15.504" viewBox="0 0 22.5 15.504">
    <path data-name="upload copy" d="M757.7 1283.113a4.171 4.171 0 0 0-.826.083 6.213 6.213 0 0 0-12.381-.733 4.769 4.769 0 0 0 .114 9.527h3.356a.546.546 0 0 0 0-1.091h-3.356a3.675 3.675 0 0 1 0-7.346c.1 0 .2 0 .311.015l.535.048.037-.554a5.17 5.17 0 0 1 10.333.376c0 .136-.006.281-.019.443l-.069.871.787-.318a3.136 3.136 0 0 1 1.179-.229 3.355 3.355 0 0 1 0 6.705l-2.848-.006-3.315-.005a.451.451 0 0 1-.51-.486l-.008-5.488.908.914a.492.492 0 0 0 .732.068.6.6 0 0 0 .063-.794l-1.594-1.8a.763.763 0 0 0-1.241 0l-1.594 1.8a.6.6 0 0 0 .063.794.494.494 0 0 0 .334.133.5.5 0 0 0 .4-.2l.891-.893-.008 5.471a1.525 1.525 0 0 0 1.566 1.572l3.313.006 2.85.005a4.447 4.447 0 0 0 0-8.889z" transform="translate(-739.747 -1276.748)" style="fill:#fff;stroke:#fff;stroke-width:.5px"/>
</svg>
