<svg xmlns="http://www.w3.org/2000/svg" id="whatsapp" width="20" height="20" viewBox="0 0 20 20">
    <defs>
        <style>
            .cls-1{fill:#ededed}.cls-2{fill:#55cd6c}.cls-3{fill:#fefefe}
        </style>
    </defs>
    <path id="Path_3587" d="M0 20l1.379-5A9.947 9.947 0 0 1 9.966 0 10.045 10.045 0 0 1 20 9.931 10.164 10.164 0 0 1 9.966 20 10.038 10.038 0 0 1 5.1 18.621z" class="cls-1" data-name="Path 3587"/>
    <path id="Path_3588" d="M47.793 59.241l.31.172a8.187 8.187 0 0 0 4.31 1.276 8.36 8.36 0 0 0 8.276-8.345 8.276 8.276 0 0 0-16.552 0 8.353 8.353 0 0 0 1.276 4.448l.207.31L44.828 60z" class="cls-2" data-name="Path 3588" transform="translate(-42.414 -42.414)"/>
    <path id="Path_3589" d="M131.953 135.1l-.655-.034a.783.783 0 0 0-.552.207 2.857 2.857 0 0 0-.966 1.483 4.485 4.485 0 0 0 1.035 3.517 10.45 10.45 0 0 0 5.655 4.1 2.8 2.8 0 0 0 2.345-.276 2.034 2.034 0 0 0 .9-1.31l.1-.483a.347.347 0 0 0-.172-.379l-2.172-1a.329.329 0 0 0-.414.1l-.862 1.1a.268.268 0 0 1-.276.069 6.7 6.7 0 0 1-3.621-3.1.26.26 0 0 1 .034-.276l.828-.931a.425.425 0 0 0 .069-.345l-1-2.241a.3.3 0 0 0-.276-.207" class="cls-3" data-name="Path 3589" transform="translate(-124.643 -129.786)"/>
</svg>
